<?xml version="1.0" encoding="utf-8"?>
<!-- Generator: Adobe Illustrator 16.0.0, SVG Export Plug-In . SVG Version: 6.00 Build 0)  -->
<!DOCTYPE svg PUBLIC "-//W3C//DTD SVG 1.1//EN" "http://www.w3.org/Graphics/SVG/1.1/DTD/svg11.dtd">
<svg version="1.1" id="Layer_1" xmlns="http://www.w3.org/2000/svg" xmlns:xlink="http://www.w3.org/1999/xlink" x="0px" y="0px"
	 width="300px" height="377.977px" viewBox="147.64 231.957 300 377.977" enable-background="new 147.64 231.957 300 377.977"
	 xml:space="preserve">
<g>
	<path fill="#7B7B7B" d="M147.885,610.153c0-125.967,0-251.98,0-377.977c100.01,0,200.005,0,300,0c0,125.977,0,251.94,0,377.977
		C347.881,610.153,247.875,610.153,147.885,610.153z M442.745,236.193c-96.984,0-193.857,0-290.843,0c0,123,0,245.893,0,368.896
		c96.982,0,193.854,0,290.843,0C442.745,482.089,442.745,359.198,442.745,236.193z"/>
	<path fill="#FFFFFF" d="M442.745,236.193c0,123.006,0,245.896,0,368.896c-96.989,0-193.863,0-290.843,0
		c0-123.003,0-245.896,0-368.896C248.888,236.193,345.761,236.193,442.745,236.193z M372.417,277.711
		c0.011,0.117,0.001-0.106-0.029-0.325c-0.336-2.428-1.775-3.567-4.198-3.47c-1.651,0.066-3.37,0.258-4.955-0.088
		c-4.427-0.966-8.83-2.069-13.18-3.33c-5.512-1.599-10.732-1.558-15.446,2.144c-2.045,1.607-7.5,1.302-8.682-1.539
		c-1.055-2.538-2.191-5.154-2.565-7.836c-0.498-3.607-2.344-6.082-5.261-7.753c-1.928-1.107-4.113-1.879-6.514-0.933
		c-1.746,0.69-3.568,1.319-5.412,1.597c-3.515,0.532-6.42-1.087-9.213-3.018c-3.908-2.699-8.325-1.255-10.489,2.958
		c-1.032,2.013-2.497,4.163-4.345,5.329c-5.085,3.207-8.249,7.845-10.932,12.956c-1.458,2.777-3.431,5.009-6.413,6.063
		c-2.815,0.996-5.68,1.957-8.601,2.51c-2.049,0.389-4.073,1.073-6.375,0.395c-3.047-0.898-6.248-0.584-9.081,1.106
		c-3.006,1.794-5.861,3.845-8.897,5.583c-4.98,2.85-10.19,4.676-16.117,3.423c-3.958-0.838-6.053-2.93-6.232-6.952
		c-0.041-0.893,0.211-1.798,0.338-2.697c0.221-1.574-1.092-2.918-2.256-2.097c-1.457,1.027-2.808,0.406-4.212,0.529
		c-1.434,0.126-1.975-0.564-2.334-1.776c-0.333-1.115-0.775-2.204-1.261-3.26c-0.445-0.967-1.083-1.163-2.067-0.494
		c-1.316,0.892-2.721,1.672-4.146,2.385c-2.966,1.485-5.945,0.395-6.938-1.207c-0.922-1.488-1.507-3.334-1.711-5.085
		c-0.347-3.011-1.692-4.183-4.539-3.194c-2.491,0.866-4.956,1.835-7.349,2.939c-3.192,1.472-4.35,4.43-3.349,7.779
		c0.697,2.337,2.764,2.996,4.586,3.952c3.293,1.73,6.009,4.056,5.667,8.074c-0.274,3.22,1.014,5.598,2.485,8.221
		c2.5,4.459,2.354,8.137-1.604,11.744c-0.727,0.664-1.459,1.334-2.107,2.075c-2.536,2.908-2.116,4.017-0.453,6.077
		c3.327,4.123,3.458,8.004,0.341,12.216c-0.29,0.393-0.512,0.84-0.749,1.271c-1.129,2.054-1.01,2.564,0.962,3.818
		c0.463,0.296,0.967,0.626,1.492,0.711c3.139,0.514,6.274,1.152,9.436,1.378c3.23,0.23,5.624,2.097,5.966,5.306
		c0.17,1.603,0.824,2.795,2.285,3.534c0.548,0.277,1.067,0.628,1.552,1.003c3.936,3.031,6.68,6.651,5.075,12.53
		c-1.11,4.063-1.813,8.25-2.466,12.417c-0.604,3.857-0.848,7.769-1.356,11.642c-0.477,3.637-1.106,7.253-1.646,10.883
		c-0.784,5.26-1.625,10.513-2.295,15.787c-0.406,3.207-0.791,6.454-0.729,9.674c0.074,3.723,0.5,7.46,1.062,11.149
		c0.355,2.337,1.037,4.677,1.921,6.876c2.191,5.466,4.606,10.839,6.878,16.272c0.754,1.803,1.414,3.655,1.998,5.52
		c0.988,3.149,1.938,6.313,2.801,9.499c0.653,2.41,1.154,4.862,1.709,7.298c0.435,1.911,0.916,3.817,1.256,5.748
		c0.615,3.477,1.146,6.97,1.694,10.458c0.567,3.604,1.099,7.216,1.669,10.818c0.363,2.294,0.714,4.594,1.168,6.869
		c0.574,2.873,1.482,5.698,1.825,8.593c0.53,4.514-1.773,6.279-6.094,5.049c-0.609-0.173-1.309-0.036-1.968-0.036
		c-2.532-0.002-4.281,1.59-5.755,3.266c-1.546,1.757-3.989,3.288-3.199,6.218c0.322,1.185,1.022,2.315,1.751,3.328
		c1.57,2.183,1.721,4.112,0.435,6.493c-1.503,2.781-3.93,5.064-4.372,8.429c-0.223,1.69-0.634,3.373-1.144,4.997
		c-0.809,2.572-1.865,5.066-2.642,7.645c-0.744,2.472,0.443,5.345,2.802,6.127c3.283,1.091,4.218,3.579,4.112,6.462
		c-0.128,3.448,0.89,6.219,3.352,8.563c0.794,0.752,1.525,1.561,2.695,0.864c1.141-0.678,0.798-1.688,0.357-2.606
		c-1.107-2.306-1.946-4.639-1.337-7.262c0.329-1.425,0.445-2.919,0.935-4.284c1.156-3.234,2.108-6.771,6.626-6.763
		c0.291,0,0.576-0.249,0.874-0.278c3.356-0.329,6.735-1.017,10.066-0.843c2.814,0.148,5.627,1.144,8.343,2.052
		c2.641,0.88,4.847,0.36,7.167-0.984c1.554-0.902,3.419-1.894,5.098-1.816c3.202,0.146,6.365,0.274,9.338-0.911
		c2.405-0.954,4.645-2.342,6.928-3.591c0.93-0.509,0.932-1.234,0.448-2.181c-0.646-1.262,0.468-4.544,1.6-4.977
		c5.243-2.007,10.509-1.668,15.589,0.381c4.611,1.86,8.561,4.834,12.016,8.431c2.408,2.506,4.818,5.009,7.417,7.711
		c1.083-3.448,2.672-6.199,5.761-7.667c2.051-0.974,4.285-1.571,6.291-2.616c1.569-0.818,3.095-0.691,4.596-0.322
		c8.284,2.024,14.724,6.931,19.978,13.414c4.121,5.085,7.047,10.938,9.752,16.87c0.636,1.396,1.476,1.689,2.744,1.429
		c2.145-0.438,4.28-0.932,6.418-1.405c2.95-0.653,3.634-2.736,1.839-5.204c-2.529-3.475-3.347-7.23-1.201-11.202
		c2.423-4.486,4.978-8.905,7.426-13.383c2.021-3.696,3.721-7.478,3.229-11.887c-0.269-2.402,0.027-4.628,1.33-6.885
		c1.585-2.743,2.756-5.782,3.709-8.82c1.176-3.743,2.002-7.604,2.875-11.436c0.721-3.16,1.32-6.35,1.919-9.533
		c0.951-5.051,1.434-10.237,2.893-15.132c1.798-6.044,4.512-11.809,6.602-17.771c1.21-3.452,2.042-7.047,2.909-10.609
		c1.009-4.152,1.872-8.337,2.791-12.511c0.791-3.587,1.76-7.149,2.289-10.776c0.326-2.258-0.109-4.615-0.026-6.921
		c0.05-1.384,0.643-2.755,0.643-4.131c-0.001-5.554-0.136-11.107-0.228-16.662c-0.03-1.771-0.073-3.543-0.117-5.314
		c-0.053-2.138-0.286-4.288-0.134-6.412c0.373-5.237,0.833-10.473,1.434-15.688c0.491-4.25,2.246-6.338,6.363-6.475
		c1.727-0.058,2.209-1.031,2.661-2.483c0.678-2.192,1.38-4.475,2.601-6.38c1.817-2.834,4.127-5.348,6.144-8.06
		c0.327-0.439,0.384-1.217,0.297-1.797c-0.135-0.903-0.664-1.769-0.687-2.658c-0.01-0.38,0.794-1.034,1.299-1.112
		c0.726-0.113,1.567,0.058,2.269,0.337c1.404,0.561,2.085-0.022,2.494-1.282c0.588-1.814,1.134-3.642,1.786-5.431
		c1.721-4.694,4.086-8.92,8.237-11.994c1.351-0.999,2.493-2.382,3.455-3.78c1.382-2.005,0.569-5.745-1.461-6.665
		c-1.37-0.621-2.938-0.977-4.442-1.085c-2.916-0.21-5.849-0.126-8.771-0.234c-1.644-0.061-3.297-0.163-4.918-0.416
		c-3.367-0.525-6.811-0.864-10.053-1.838c-3.625-1.091-6.558-3.489-9.355-6.091c-2.5-2.321-5.258-4.457-8.19-6.19
		c-3.237-1.917-6.563-3.589-8.981-6.61c-1.414-1.764-2.966-3.424-4.516-5.076c-0.937-1.001-0.771-1.654,0.39-2.276
		c0.961-0.516,1.956-1.033,2.771-1.742c0.651-0.569,1.331-1.358,1.518-2.162c0.947-4.054,1.704-8.152,2.59-12.22
		c0.653-3.004-0.116-5.66-1.848-8.086c-0.253-0.354-0.813-0.598-1.269-0.675c-1.293-0.221-2.605-0.337-3.913-0.472
		C373.325,277.678,372.945,277.711,372.417,277.711z"/>
	<path fill="#516F90" d="M372.417,277.711c0.527,0,0.908-0.033,1.282,0.005c1.307,0.137,2.62,0.252,3.913,0.472
		c0.455,0.077,1.016,0.321,1.269,0.675c1.73,2.426,2.501,5.082,1.847,8.086c-0.885,4.068-1.643,8.167-2.589,12.22
		c-0.188,0.804-0.867,1.593-1.518,2.162c-0.814,0.709-1.811,1.226-2.771,1.742c-1.161,0.621-1.327,1.275-0.39,2.276
		c1.551,1.652,3.102,3.312,4.516,5.076c2.419,3.021,5.744,4.692,8.981,6.61c2.932,1.733,5.69,3.869,8.19,6.189
		c2.799,2.603,5.73,5,9.355,6.091c3.242,0.974,6.686,1.313,10.053,1.838c1.621,0.253,3.274,0.355,4.916,0.416
		c2.925,0.108,5.857,0.024,8.772,0.234c1.506,0.108,3.073,0.464,4.444,1.085c2.029,0.919,2.842,4.66,1.46,6.665
		c-0.963,1.397-2.104,2.781-3.455,3.779c-4.153,3.074-6.519,7.3-8.237,11.994c-0.652,1.789-1.198,3.617-1.786,5.431
		c-0.408,1.26-1.09,1.843-2.494,1.282c-0.701-0.279-1.543-0.45-2.269-0.337c-0.504,0.078-1.308,0.733-1.299,1.112
		c0.021,0.89,0.552,1.755,0.687,2.658c0.087,0.581,0.03,1.357-0.297,1.797c-2.018,2.71-4.327,5.226-6.144,8.06
		c-1.221,1.905-1.923,4.188-2.601,6.38c-0.451,1.453-0.935,2.425-2.661,2.483c-4.118,0.138-5.873,2.226-6.363,6.476
		c-0.602,5.216-1.06,10.45-1.434,15.688c-0.152,2.122,0.081,4.273,0.134,6.412c0.044,1.77,0.087,3.542,0.117,5.314
		c0.092,5.554,0.227,11.109,0.228,16.661c0,1.378-0.593,2.749-0.643,4.133c-0.083,2.306,0.354,4.663,0.025,6.921
		c-0.53,3.625-1.498,7.188-2.288,10.776c-0.919,4.17-1.781,8.358-2.791,12.509c-0.867,3.563-1.699,7.157-2.909,10.609
		c-2.089,5.965-4.804,11.727-6.603,17.771c-1.458,4.896-1.941,10.081-2.892,15.134c-0.599,3.184-1.198,6.373-1.919,9.531
		c-0.873,3.831-1.698,7.69-2.875,11.438c-0.954,3.036-2.124,6.075-3.709,8.82c-1.303,2.257-1.599,4.482-1.33,6.883
		c0.492,4.408-1.208,8.189-3.229,11.889c-2.448,4.478-5.002,8.895-7.425,13.383c-2.146,3.972-1.328,7.726,1.201,11.202
		c1.795,2.466,1.111,4.551-1.839,5.202c-2.138,0.474-4.273,0.967-6.418,1.405c-1.268,0.261-2.108-0.031-2.744-1.427
		c-2.705-5.933-5.631-11.785-9.752-16.872c-5.254-6.481-11.694-11.39-19.978-13.414c-1.501-0.367-3.025-0.494-4.596,0.322
		c-2.006,1.047-4.24,1.645-6.291,2.616c-3.09,1.47-4.679,4.219-5.761,7.667c-2.599-2.7-5.009-5.203-7.417-7.711
		c-3.454-3.597-7.404-6.568-12.015-8.431c-5.081-2.049-10.347-2.386-15.589-0.381c-1.132,0.435-2.246,3.713-1.6,4.979
		c0.484,0.946,0.483,1.672-0.448,2.181c-2.284,1.249-4.522,2.635-6.928,3.591c-2.973,1.184-6.136,1.055-9.338,0.908
		c-1.679-0.074-3.544,0.915-5.099,1.817c-2.319,1.347-4.526,1.866-7.167,0.984c-2.716-0.908-5.529-1.903-8.343-2.05
		c-3.331-0.176-6.709,0.512-10.066,0.843c-0.299,0.027-0.583,0.278-0.874,0.278c-4.518-0.008-5.47,3.528-6.626,6.763
		c-0.489,1.363-0.605,2.859-0.934,4.284c-0.607,2.623,0.231,4.956,1.337,7.26c0.441,0.921,0.784,1.929-0.357,2.608
		c-1.17,0.696-1.901-0.112-2.695-0.866c-2.462-2.344-3.479-5.112-3.352-8.563c0.106-2.883-0.829-5.371-4.112-6.46
		c-2.357-0.784-3.544-3.655-2.802-6.129c0.777-2.578,1.833-5.072,2.642-7.643c0.51-1.626,0.921-3.309,1.144-4.999
		c0.442-3.362,2.869-5.647,4.372-8.429c1.286-2.379,1.135-4.311-0.435-6.491c-0.729-1.013-1.43-2.146-1.751-3.328
		c-0.79-2.93,1.652-4.463,3.199-6.22c1.475-1.674,3.224-3.268,5.755-3.264c0.659,0,1.358-0.137,1.968,0.036
		c4.319,1.229,6.623-0.535,6.094-5.049c-0.342-2.896-1.25-5.72-1.824-8.595c-0.454-2.275-0.806-4.573-1.168-6.867
		c-0.57-3.604-1.102-7.214-1.669-10.82c-0.548-3.488-1.08-6.981-1.694-10.458c-0.34-1.929-0.821-3.835-1.256-5.748
		c-0.556-2.436-1.056-4.888-1.709-7.298c-0.862-3.186-1.813-6.35-2.801-9.497c-0.584-1.866-1.244-3.717-1.998-5.52
		c-2.272-5.434-4.688-10.807-6.879-16.272c-0.884-2.201-1.566-4.541-1.92-6.878c-0.562-3.689-0.988-7.425-1.062-11.147
		c-0.062-3.221,0.324-6.468,0.73-9.675c0.67-5.276,1.511-10.529,2.294-15.787c0.541-3.63,1.169-7.247,1.646-10.884
		c0.509-3.873,0.751-7.785,1.356-11.641c0.653-4.168,1.356-8.355,2.466-12.417c1.604-5.878-1.14-9.498-5.076-12.53
		c-0.486-0.375-1.003-0.727-1.552-1.003c-1.461-0.74-2.115-1.933-2.286-3.534c-0.342-3.208-2.735-5.075-5.965-5.306
		c-3.163-0.226-6.298-0.863-9.437-1.377c-0.524-0.085-1.028-0.417-1.492-0.712c-1.972-1.253-2.093-1.763-0.962-3.817
		c0.236-0.431,0.459-0.877,0.749-1.271c3.118-4.212,2.986-8.094-0.341-12.217c-1.662-2.059-2.082-3.168,0.453-6.076
		c0.647-0.741,1.38-1.411,2.107-2.075c3.958-3.607,4.103-7.285,1.604-11.744c-1.471-2.625-2.76-5.001-2.485-8.221
		c0.342-4.019-2.373-6.344-5.667-8.074c-1.822-0.957-3.89-1.614-4.586-3.952c-1-3.348,0.157-6.307,3.349-7.778
		c2.394-1.105,4.858-2.074,7.349-2.939c2.847-0.989,4.192,0.183,4.539,3.193c0.203,1.751,0.79,3.598,1.711,5.085
		c0.994,1.603,3.971,2.693,6.937,1.208c1.425-0.713,2.829-1.494,4.146-2.385c0.984-0.667,1.623-0.472,2.067,0.494
		c0.486,1.056,0.928,2.146,1.261,3.26c0.361,1.212,0.9,1.902,2.334,1.776c1.404-0.123,2.756,0.499,4.212-0.529
		c1.164-0.82,2.477,0.522,2.255,2.097c-0.126,0.898-0.378,1.805-0.337,2.697c0.179,4.022,2.274,6.114,6.232,6.952
		c5.928,1.253,11.138-0.573,16.118-3.423c3.037-1.738,5.891-3.788,8.897-5.583c2.833-1.69,6.033-2.006,9.081-1.106
		c2.302,0.679,4.326-0.005,6.375-0.394c2.921-0.554,5.787-1.514,8.601-2.51c2.982-1.053,4.955-3.286,6.413-6.063
		c2.683-5.111,5.846-9.751,10.932-12.957c1.848-1.166,3.313-3.316,4.345-5.329c2.163-4.214,6.581-5.658,10.489-2.958
		c2.793,1.931,5.699,3.55,9.213,3.018c1.845-0.278,3.666-0.908,5.412-1.597c2.4-0.945,4.586-0.173,6.514,0.933
		c2.917,1.672,4.763,4.146,5.261,7.753c0.374,2.683,1.511,5.299,2.565,7.837c1.182,2.84,6.637,3.146,8.682,1.539
		c4.714-3.701,9.935-3.743,15.447-2.145c4.349,1.26,8.751,2.364,13.179,3.33c1.584,0.346,3.304,0.154,4.956,0.088
		c2.421-0.098,3.861,1.042,4.197,3.469C372.418,277.604,372.428,277.828,372.417,277.711z M300.104,447.508
		c-1.068-2.193-1.996-4.126-2.946-6.047c-11.979-24.235-23.959-48.469-35.941-72.704c-3.958-8.002-7.94-15.993-11.865-24.012
		c-0.522-1.065-1.3-1.658-2.306-1.224c-0.589,0.255-1.003,1.166-1.267,1.867c-0.276,0.731-0.284,1.564-0.395,2.355
		c-1.064,7.477-2.127,14.954-3.188,22.432c-1.036,7.293-2.07,14.588-3.102,21.882c-1.039,7.354-2.063,14.709-3.109,22.063
		c-1.171,8.21-2.366,16.414-3.541,24.62c-1.208,8.446-2.418,16.896-3.608,25.342c-0.329,2.332-0.588,4.676-0.908,7.222
		c3.782,0,7.23-0.146,10.661,0.057c2.029,0.118,2.475-0.764,2.681-2.48c0.714-5.973,1.523-11.938,2.321-17.899
		c0.935-6.999,1.901-13.992,2.839-20.989c0.913-6.817,1.797-13.634,2.71-20.451c0.937-6.996,1.892-13.992,2.843-20.988
		c0.346-2.544,0.709-5.086,1.126-8.066c0.843,1.739,1.447,3.016,2.076,4.28c14.013,28.182,28.032,56.362,42.032,84.551
		c0.568,1.139,0.993,2.077,2.623,2.055c1.585-0.023,2.56-0.455,3.085-1.955c0.242-0.693,0.645-1.331,0.973-1.992
		c13.867-28.041,27.733-56.083,41.603-84.123c0.273-0.555,0.586-1.092,1.063-1.971c0.713,4.978,1.388,9.465,1.991,13.962
		c1.049,7.788,2.025,15.588,3.079,23.376c1.172,8.639,2.417,17.268,3.592,25.905c1.151,8.457,2.269,16.918,3.371,25.381
		c0.147,1.118,0.744,1.377,1.759,1.365c3.453-0.04,6.905-0.01,10.359-0.026c0.402-0.002,0.804-0.137,1.355-0.238
		c-0.329-2.292-0.651-4.469-0.959-6.65c-1.271-9.057-2.515-18.118-3.815-27.171c-1.536-10.698-3.144-21.386-4.68-32.084
		c-1.422-9.905-2.772-19.821-4.186-29.727c-1.432-10.027-2.885-20.051-4.4-30.065c-0.103-0.685-0.695-1.589-1.291-1.839
		c-1.025-0.432-1.773,0.205-2.282,1.263c-3.203,6.659-6.457,13.292-9.709,19.927c-12.359,25.213-24.724,50.424-37.089,75.631
		C302.531,442.648,301.378,444.944,300.104,447.508z M299.662,392.172c-0.986,0-1.971-0.014-2.955,0.003
		c-2.524,0.044-3.96,1.489-3.989,4.029c-0.019,1.724-0.036,3.448,0.007,5.17c0.055,2.194,1.528,3.659,3.744,3.702
		c2.215,0.043,4.433,0.052,6.646-0.005c2.096-0.056,3.556-1.541,3.61-3.644c0.051-1.847,0.046-3.694,0.004-5.54
		c-0.052-2.188-1.534-3.64-3.743-3.709C301.879,392.146,300.769,392.173,299.662,392.172z"/>
	<path fill="#FFFFFF" d="M300.104,447.508c1.274-2.564,2.427-4.86,3.559-7.168c12.365-25.208,24.729-50.418,37.089-75.632
		c3.252-6.634,6.506-13.268,9.709-19.927c0.509-1.058,1.257-1.695,2.282-1.263c0.596,0.25,1.188,1.155,1.292,1.839
		c1.516,10.014,2.969,20.039,4.399,30.065c1.413,9.906,2.764,19.821,4.186,29.726c1.536,10.698,3.144,21.386,4.68,32.084
		c1.301,9.053,2.545,18.114,3.815,27.173c0.308,2.18,0.629,4.358,0.96,6.65c-0.553,0.102-0.955,0.236-1.356,0.236
		c-3.454,0.019-6.906-0.012-10.359,0.028c-1.015,0.012-1.611-0.247-1.759-1.367c-1.102-8.463-2.22-16.922-3.37-25.379
		c-1.177-8.637-2.421-17.266-3.592-25.906c-1.055-7.788-2.031-15.588-3.078-23.376c-0.606-4.497-1.28-8.985-1.993-13.963
		c-0.478,0.88-0.79,1.417-1.063,1.971c-13.87,28.04-27.736,56.083-41.603,84.123c-0.328,0.663-0.729,1.301-0.973,1.992
		c-0.524,1.5-1.5,1.934-3.085,1.955c-1.63,0.024-2.054-0.914-2.622-2.053c-14.001-28.191-28.02-56.37-42.033-84.552
		c-0.629-1.265-1.233-2.542-2.076-4.28c-0.416,2.979-0.781,5.522-1.126,8.066c-0.952,6.996-1.906,13.992-2.843,20.988
		c-0.913,6.817-1.797,13.635-2.71,20.449c-0.938,6.998-1.904,13.991-2.839,20.99c-0.798,5.964-1.606,11.927-2.322,17.899
		c-0.205,1.717-0.652,2.601-2.681,2.48c-3.428-0.201-6.879-0.057-10.661-0.057c0.32-2.544,0.58-4.888,0.908-7.22
		c1.191-8.448,2.399-16.897,3.608-25.342c1.177-8.208,2.372-16.412,3.541-24.621c1.048-7.353,2.071-14.709,3.11-22.063
		c1.03-7.294,2.065-14.589,3.101-21.882c1.062-7.478,2.124-14.956,3.189-22.432c0.11-0.791,0.119-1.625,0.394-2.355
		c0.264-0.701,0.678-1.611,1.267-1.866c1.006-0.433,1.784,0.159,2.306,1.224c3.925,8.019,7.908,16.01,11.865,24.012
		c11.981,24.234,23.962,48.469,35.941,72.705C298.108,443.384,299.035,445.315,300.104,447.508z"/>
	<path fill="#FFFFFF" d="M299.662,392.173c1.106,0,2.217-0.026,3.323,0.006c2.209,0.069,3.692,1.521,3.743,3.709
		c0.041,1.845,0.047,3.693-0.004,5.541c-0.055,2.102-1.515,3.587-3.61,3.643c-2.214,0.057-4.431,0.048-6.646,0.005
		c-2.216-0.043-3.689-1.508-3.744-3.702c-0.043-1.722-0.026-3.446-0.007-5.17c0.029-2.541,1.464-3.983,3.989-4.029
		C297.692,392.158,298.676,392.172,299.662,392.173z"/>
</g>
</svg>
